<?xml version="1.0" encoding="utf-8"?>
<!-- Generator: Adobe Illustrator 15.1.0, SVG Export Plug-In . SVG Version: 6.00 Build 0)  -->
<!DOCTYPE svg PUBLIC "-//W3C//DTD SVG 1.1//EN" "http://www.w3.org/Graphics/SVG/1.1/DTD/svg11.dtd">
<svg version="1.1" id="Layer_1" xmlns="http://www.w3.org/2000/svg" xmlns:xlink="http://www.w3.org/1999/xlink" x="0px" y="0px"
	 width="800px" height="400px" viewBox="0 0 800 400" enable-background="new 0 0 800 400" xml:space="preserve">
<g id="Mobile_x5F_TV_2_">
	<defs>
		<rect id="SVGID_1_" x="325.417" y="135.002" width="150" height="130"/>
	</defs>
	<clipPath id="SVGID_2_">
		<use xlink:href="#SVGID_1_"  overflow="visible"/>
	</clipPath>
	<path clip-path="url(#SVGID_2_)" fill="#909191" d="M385.417,150.002h-50c-5.41,0-10,4.478-10,10v95.001
		c0,5.521,4.59,9.999,10,9.999h50c5.411,0,10-4.478,10-9.999v-95.001C395.417,154.479,390.828,150.002,385.417,150.002z
		 M390.417,255.003c0,2.753-2.305,4.999-5,4.999h-50c-2.695,0-5-2.246-5-4.999v-95.001c0-2.759,2.305-5,5-5h50c2.695,0,5,2.241,5,5
		V255.003z"/>
	<path clip-path="url(#SVGID_2_)" fill="#909191" d="M335.417,245.002h50v-75h-50V245.002z M340.417,175.002h40v65h-40V175.002z"/>
	<rect x="355.417" y="250.002" clip-path="url(#SVGID_2_)" fill="#909191" width="10" height="5.001"/>
	<rect x="350.417" y="160.002" clip-path="url(#SVGID_2_)" fill="#909191" width="5" height="5"/>
	<rect x="360.417" y="160.002" clip-path="url(#SVGID_2_)" fill="#909191" width="10" height="5"/>
	<path clip-path="url(#SVGID_2_)" fill="#909191" d="M465.418,135.002H365.417c-5.41,0-10,4.478-10,10h5c0-2.759,2.305-5,5-5
		h100.001c2.694,0,4.999,2.242,4.999,5v70c0,2.754-2.305,5-4.999,5h-65v5h15v5.001h-15v4.998h55v-4.998h-35.001v-5.001h45.002
		c5.409,0,9.999-4.478,9.999-10v-70C475.417,139.479,470.827,135.002,465.418,135.002z"/>
</g>
</svg>
